<svg width="100" height="80" viewBox="0 0 100 80" fill="none" xmlns="http://www.w3.org/2000/svg">
    <path d="M77.78 21.7674C76.7731 22.0634 75.7055 22.135 74.6633 21.9767C73.6211 21.8183 72.6334 21.4344 71.78 20.8558C67.1954 18.0407 61.9723 16.2513 56.52 15.6279C53.6966 15.2589 50.835 15.2151 48 15.4977C44.0598 16.1274 40.1656 16.9848 36.34 18.0651C34.223 18.8896 32.1654 19.8405 30.18 20.9116C29.3559 21.3091 28.4194 21.4586 27.5 21.3395C18.96 19.3674 12.42 21.8605 7.50003 28.7814C3.32003 34.6791 6.02003 43.6651 10.66 46.9395C11.6381 47.635 12.29 48.6546 12.48 49.786C12.7682 53.045 13.8112 56.2073 15.5373 59.0559C17.2635 61.9045 19.6319 64.3718 22.48 66.2884C22.8 66.5302 23.14 66.7349 23.46 66.9395C26.8995 69.0906 30.6065 70.8461 34.5 72.1674C39.8865 73.8315 45.5475 74.5937 51.22 74.4186C56.7 74.2512 62.2 74.2326 67.34 72.2233C71.919 70.4002 76.1426 67.8857 79.84 64.7814C84.26 59.8139 88.46 54.6419 89.08 48.0372C89.398 44.797 90.5209 41.6699 92.36 38.9023C92.9073 37.991 93.2732 36.9951 93.44 35.9628C95.02 27.1442 86.46 18.7907 77.78 21.7674Z" fill="black"/>
    <path d="M82.34 23.9628C80.6906 23.8127 79.0294 23.8127 77.38 23.9628C80.9 27.8698 84.04 31.1442 85.38 35.5535C77.38 24.4837 66.1 18.214 51.96 18.1209C45.2112 17.8827 38.5148 19.3097 32.5504 22.257C26.5861 25.2043 21.5661 29.567 18 34.9023C17.66 33.9163 16.98 33.0419 17.24 32.4837C18.9233 28.8859 21.8712 25.9272 25.6 24.093C19.6 21.9907 12.92 25.0977 9.60004 31.2558C7.02004 36.0558 8.56004 42.5674 13.08 45.2093C13.3513 43.7999 13.7187 42.4079 14.18 41.0419C14.7574 39.8217 15.4257 38.6405 16.18 37.507C16.2979 37.7002 16.3712 37.9141 16.3953 38.1351C16.4194 38.3561 16.3938 38.5794 16.32 38.7907C14.6996 43.8361 14.9819 49.2452 17.12 54.1209C18.5377 58.0552 21.2008 61.4989 24.76 64C39.12 73.8047 59.18 76.2047 75.32 65.693C78.6826 63.4646 81.4613 60.559 83.4489 57.1927C85.4366 53.8265 86.5821 50.0864 86.8 46.2512C87 44.1488 87 42.0465 87.1 39.9256L87.7 40.4279C88.58 39.8884 89.94 39.5163 90.3 38.7535C90.8872 37.2997 91.1451 35.7488 91.0577 34.198C90.9703 32.6472 90.5394 31.1299 89.792 29.7412C89.0447 28.3526 87.997 27.1225 86.7147 26.1282C85.4323 25.1338 83.943 24.3966 82.34 23.9628Z" fill="white"/>
    <path d="M64 57.6744C59.14 53.8419 45.44 53.0791 40.84 57.9907C39.74 59.1628 37.1 58.1023 39.04 56.5767C46.58 50.6605 58.62 50.7535 64.56 55.7767C66.14 57.1349 65.16 58.6233 64 57.6744ZM39.66 34.6791C38.5174 33.9154 37.2126 33.3876 35.8329 33.1309C34.4532 32.8742 33.0305 32.8946 31.66 33.1907H31.52L31.18 33.3023C30.5336 33.4578 29.9234 33.7227 29.38 34.0837V34.2698C26.54 36.4093 24.86 40.8372 27.2 43.8698C27.6365 44.3813 28.1892 44.7967 28.8185 45.0862C29.4478 45.3756 30.1381 45.5321 30.84 45.5442C32.1703 45.6627 33.5097 45.6627 34.84 45.5442C36.612 45.4212 38.3361 44.9521 39.9 44.1674C41.52 43.4605 42.22 42.9209 42.3 41.3581C42.3445 38.9037 41.4031 36.5221 39.66 34.6791ZM75.16 36.3349C74.1248 35.0712 72.7354 34.0972 71.1443 33.5196C69.5532 32.942 67.8218 32.7831 66.14 33.0605C66.0411 33.0414 65.939 33.0414 65.84 33.0605H65.72L65.14 33.1721C64.86 33.1721 64.82 33.3581 64.9 33.4698C63.2545 34.5105 62.1089 36.1061 61.7058 37.9187C61.3027 39.7313 61.6736 41.6187 62.74 43.1814C63.1596 43.7229 63.7129 44.1627 64.3533 44.4638C64.9937 44.7649 65.7025 44.9185 66.42 44.9116C68.1529 45.0139 69.8658 45.3138 71.52 45.8047C72.2935 46.0429 73.1194 46.0942 73.92 45.9535C75.72 45.7488 76.44 43.0512 76.64 41.6558C76.8594 39.7737 76.3332 37.8818 75.16 36.3349Z" fill="black"/>
    <path d="M34.6801 43.7581C34.0179 43.8638 33.3504 43.9383 32.6801 43.9814C30.6801 44.1488 29.7601 44.0744 29.1601 42.4186C28.6787 41.0715 28.7916 39.6018 29.4741 38.3321C30.1565 37.0624 31.3528 36.0965 32.8001 35.6465L33.4201 35.4977C34.1982 35.3505 35.002 35.3698 35.7709 35.554C36.5398 35.7382 37.2536 36.0825 37.8585 36.5609C38.4634 37.0394 38.9435 37.6394 39.2625 38.3158C39.5815 38.9921 39.7312 39.7271 39.7001 40.4651C39.7001 44.0372 36.6401 43.4419 34.6801 43.7581ZM74.0001 42.5674C73.4201 44.6698 71.6601 44.5953 69.8001 44.093C69.111 43.9081 68.3973 43.8142 67.6801 43.8139C67.2491 43.8548 66.8136 43.8143 66.3998 43.6949C65.986 43.5756 65.6024 43.3797 65.2719 43.1192C64.9413 42.8586 64.6707 42.5387 64.4763 42.1785C64.2818 41.8184 64.1675 41.4255 64.1401 41.0232C63.8077 39.873 63.9394 38.6494 64.5106 37.5834C65.0817 36.5174 66.0527 35.6828 67.2401 35.2372C68.7041 35.0136 70.2052 35.3025 71.4536 36.0481C72.702 36.7937 73.6092 37.9431 74.0001 39.2744C74.3287 40.3508 74.3287 41.491 74.0001 42.5674Z" fill="#FF4500"/>
    <path d="M53.1 6.47441C52.6929 5.57828 52.0233 4.8066 51.1676 4.24738C50.3118 3.68816 49.3043 3.36392 48.26 3.31162C41.3 2.77209 34.74 6.38139 30.52 9.48837L29.84 9.06046C29.2126 8.57992 28.4933 8.21383 27.72 7.98139L26.82 7.79534C26.1471 7.70281 25.4599 7.76673 24.82 7.98139C23.8033 8.08716 22.8326 8.43299 22 8.98604C22 8.98604 21.26 9.56278 21.08 9.74883C20.1414 10.665 19.4633 11.7846 19.1071 13.006C18.7509 14.2275 18.7278 15.5123 19.04 16.7442C19.3629 17.7384 19.9777 18.629 20.8151 19.316C21.6524 20.0029 22.6793 20.4588 23.78 20.6326C24.3509 20.7536 24.9344 20.816 25.52 20.8186C26.5869 20.8295 27.6418 20.608 28.6003 20.1719C29.5588 19.7358 30.3943 19.0971 31.04 18.307C31.6819 17.4788 32.1233 16.5311 32.3339 15.529C32.5445 14.527 32.5193 13.4944 32.26 12.5023C32.1684 12.098 32.0275 11.7048 31.84 11.3302H31.94L32.24 11.0884C35.1477 8.8482 38.4496 7.09214 42 5.89767C46 4.55813 49.1 5.30232 50.44 7.75813C50.9646 8.94573 51.1625 10.2363 51.0158 11.5129C50.8691 12.7896 50.3825 14.0121 49.6 15.0698C49.5387 15.1722 49.5065 15.2874 49.5065 15.4046C49.5065 15.5219 49.5387 15.6371 49.6 15.7395C49.88 16.2419 50.74 16.3721 51.18 16.3721C51.3734 16.3904 51.5687 16.3625 51.7472 16.2908C51.9258 16.2192 52.0816 16.1063 52.2 15.9628C53.1066 14.5457 53.6582 12.9568 53.814 11.3141C53.9699 9.67149 53.7258 8.01728 53.1 6.47441Z" fill="black"/>
    <path d="M21.6401 13.1349C22.0754 12.2714 22.7489 11.5307 23.5921 10.9882C24.4353 10.4456 25.418 10.1207 26.4401 10.0465C27.0481 10.0433 27.6469 10.1842 28.1801 10.4558C28.3249 10.6346 28.4584 10.8209 28.5801 11.014V11.1814C29.0491 11.9919 29.4053 12.8547 29.6401 13.7488C29.7435 14.4061 29.6991 15.0762 29.5098 15.7167C29.3205 16.3572 28.9903 16.9541 28.5401 17.4698C28.1787 18.0014 27.6883 18.4467 27.1082 18.7698C26.5281 19.093 25.8745 19.2849 25.2001 19.3302C24.4646 19.2698 23.7571 19.0389 23.1423 18.6586C22.5274 18.2784 22.0247 17.7609 21.6801 17.1535C21.2764 16.552 21.059 15.8585 21.0519 15.1494C21.0449 14.4404 21.2484 13.7432 21.6401 13.1349Z" fill="white"/>
    <path d="M29.06 43.5907H28.96C27.8319 43.2629 26.6298 43.2229 25.4794 43.4749C24.3289 43.7269 23.2724 44.2616 22.42 45.0232C22.0196 45.3878 21.7378 45.85 21.6069 46.3568C21.476 46.8635 21.5013 47.3944 21.68 47.8884C22.06 48.8744 23.54 49.0977 24.48 49.2465C27.16 49.6372 30.48 49.8232 32.3 47.6837C32.6859 47.2739 32.9305 46.7655 33.0018 46.2247C33.0731 45.6839 32.968 45.1356 32.7 44.6512C32.28 43.8512 29.9 43.6651 29.06 43.5907ZM77.54 47.2372C76.84 45.3767 74.08 44.9116 72.26 44.7814H72C71.5878 44.7136 71.1638 44.7464 70.7693 44.8766C70.3749 45.0068 70.0235 45.2299 69.7494 45.5242C69.4754 45.8185 69.288 46.1739 69.2058 46.5556C69.1235 46.9374 69.1491 47.3325 69.28 47.7023C69.44 48.4279 70.94 49.1907 71.58 49.5628C72.5919 50.0247 73.6942 50.2906 74.82 50.3442C75.2561 50.4316 75.7083 50.4216 76.1394 50.3148C76.5705 50.2081 76.9683 50.0077 77.3 49.7302C77.5708 49.3705 77.7355 48.9509 77.7776 48.5135C77.8197 48.0761 77.7378 47.636 77.54 47.2372Z" fill="#0079D3"/>
    <path d="M26.5199 48.614C25.1999 48.4837 23.6599 48.3349 23.4799 46.8651C23.2199 44.893 25.9999 43.814 27.6399 44.2605H27.7999C27.9192 44.2782 28.0407 44.2782 28.1599 44.2605C29.4799 44.3721 30.9999 44.5767 31.0599 46.0093C31.1399 48.3721 28.2799 48.7814 26.5199 48.614ZM75.2599 49.4326C74.6199 50.1209 72.5999 48.9674 72.0799 48.5953C71.8248 48.4453 71.6096 48.2435 71.4502 48.0051C71.2909 47.7667 71.1917 47.4978 71.1599 47.2186C71.1599 46.8837 71.4999 45.3581 72.1399 45.5814C72.4085 45.6485 72.6913 45.6485 72.9599 45.5814C73.4654 45.5992 73.9591 45.7281 74.4007 45.9577C74.8422 46.1874 75.2189 46.5111 75.4999 46.9023C75.7527 47.2935 75.8656 47.7491 75.8225 48.2038C75.7793 48.6584 75.5824 49.0886 75.2599 49.4326Z" fill="#91CFF6"/>
</svg>
