<svg width="1053" height="931" viewBox="0 0 1053 931" fill="none" xmlns="http://www.w3.org/2000/svg">
<path d="M0 50C0 22.3858 22.3858 0 50 0H1003C1030.61 0 1053 22.3858 1053 50V881C1053 908.614 1030.61 931 1003 931H50C22.3858 931 0 908.614 0 881V50Z" fill="#EDEDED"/>
<path d="M751.428 -121.103C1059.64 -104.644 1275.08 28.5212 1417.22 179.641C1559.35 330.761 1584.79 517.791 1364.85 785.617C1282.56 872.399 1171.85 1031 981.836 1031C910.021 1031 835.213 990.602 784.344 926.263C714.025 834.993 664.651 718.286 613.782 604.572C562.913 490.858 479.128 341.235 438.732 251.461C378.885 116.799 414.793 -139.057 751.428 -121.103Z" fill="#FF3C5A"/>
</svg>
