<svg width="22" height="22" viewBox="0 0 22 22" fill="none" xmlns="http://www.w3.org/2000/svg">
<path d="M11.4392 21C16.704 21 20.9719 16.5228 20.9719 11C20.9719 5.47715 16.704 1 11.4392 1C6.17443 1 1.90649 5.47715 1.90649 11C1.90649 16.5228 6.17443 21 11.4392 21Z" stroke="#FF3C5A" stroke-width="2" stroke-linecap="round" stroke-linejoin="round"/>
<path d="M8.66528 8C8.8894 7.33167 9.33176 6.76811 9.91402 6.40913C10.4963 6.05016 11.1809 5.91894 11.8465 6.03871C12.5122 6.15849 13.1159 6.52153 13.5509 7.06353C13.9858 7.60553 14.2239 8.29152 14.2229 9C14.2229 11 11.363 12 11.363 12" stroke="#FF3C5A" stroke-width="2" stroke-linecap="round" stroke-linejoin="round"/>
<path d="M11.4392 16H11.4492" stroke="#FF3C5A" stroke-width="2" stroke-linecap="round" stroke-linejoin="round"/>
</svg>

