<svg width="22" height="22" viewBox="0 0 22 22" fill="none" xmlns="http://www.w3.org/2000/svg">
<path d="M11.4393 21C16.704 21 20.972 16.5228 20.972 11C20.972 5.47715 16.704 1 11.4393 1C6.17449 1 1.90656 5.47715 1.90656 11C1.90656 16.5228 6.17449 21 11.4393 21Z" stroke="#B9B9B9" stroke-width="2" stroke-linecap="round" stroke-linejoin="round"/>
<path d="M8.66522 8C8.88934 7.33167 9.3317 6.76811 9.91396 6.40913C10.4962 6.05016 11.1808 5.91894 11.8465 6.03871C12.5121 6.15849 13.1159 6.52153 13.5508 7.06353C13.9857 7.60553 14.2238 8.29152 14.2228 9C14.2228 11 11.363 12 11.363 12" stroke="#B9B9B9" stroke-width="2" stroke-linecap="round" stroke-linejoin="round"/>
<path d="M11.4393 16H11.4493" stroke="#B9B9B9" stroke-width="2" stroke-linecap="round" stroke-linejoin="round"/>
</svg>
