<svg width="1440" height="862" viewBox="0 0 1440 862" fill="none" xmlns="http://www.w3.org/2000/svg">
<rect width="1440" height="862" fill="#F8F8F8"/>
<path d="M747.78 149.767C746.773 150.063 745.705 150.135 744.663 149.977C743.621 149.818 742.633 149.434 741.78 148.856C737.195 146.041 731.972 144.251 726.52 143.628C723.697 143.259 720.835 143.215 718 143.498C714.06 144.127 710.166 144.985 706.34 146.065C704.223 146.89 702.165 147.84 700.18 148.912C699.356 149.309 698.419 149.459 697.5 149.34C688.96 147.367 682.42 149.86 677.5 156.781C673.32 162.679 676.02 171.665 680.66 174.94C681.638 175.635 682.29 176.655 682.48 177.786C682.768 181.045 683.811 184.207 685.537 187.056C687.263 189.904 689.632 192.372 692.48 194.288C692.8 194.53 693.14 194.735 693.46 194.94C696.899 197.091 700.607 198.846 704.5 200.167C709.886 201.831 715.547 202.594 721.22 202.419C726.7 202.251 732.2 202.233 737.34 200.223C741.919 198.4 746.143 195.886 749.84 192.781C754.26 187.814 758.46 182.642 759.08 176.037C759.398 172.797 760.521 169.67 762.36 166.902C762.907 165.991 763.273 164.995 763.44 163.963C765.02 155.144 756.46 146.791 747.78 149.767Z" fill="black"/>
<path d="M752.34 151.963C750.691 151.813 749.029 151.813 747.38 151.963C750.9 155.87 754.04 159.144 755.38 163.553C747.38 152.484 736.1 146.214 721.96 146.121C715.211 145.883 708.515 147.31 702.55 150.257C696.586 153.204 691.566 157.567 688 162.902C687.66 161.916 686.98 161.042 687.24 160.484C688.923 156.886 691.871 153.927 695.6 152.093C689.6 149.991 682.92 153.098 679.6 159.256C677.02 164.056 678.56 170.567 683.08 173.209C683.351 171.8 683.719 170.408 684.18 169.042C684.757 167.822 685.426 166.641 686.18 165.507C686.298 165.7 686.371 165.914 686.395 166.135C686.419 166.356 686.394 166.579 686.32 166.791C684.7 171.836 684.982 177.245 687.12 182.121C688.538 186.055 691.201 189.499 694.76 192C709.12 201.805 729.18 204.205 745.32 193.693C748.683 191.465 751.461 188.559 753.449 185.193C755.437 181.827 756.582 178.086 756.8 174.251C757 172.149 757 170.047 757.1 167.926L757.7 168.428C758.58 167.888 759.94 167.516 760.3 166.753C760.887 165.3 761.145 163.749 761.058 162.198C760.97 160.647 760.539 159.13 759.792 157.741C759.045 156.353 757.997 155.123 756.715 154.128C755.432 153.134 753.943 152.397 752.34 151.963Z" fill="white"/>
<path d="M734 185.674C729.14 181.842 715.44 181.079 710.84 185.991C709.74 187.163 707.1 186.102 709.04 184.577C716.58 178.66 728.62 178.753 734.56 183.777C736.14 185.135 735.16 186.623 734 185.674ZM709.66 162.679C708.517 161.915 707.213 161.388 705.833 161.131C704.453 160.874 703.031 160.895 701.66 161.191H701.52L701.18 161.302C700.534 161.458 699.923 161.723 699.38 162.084V162.27C696.54 164.409 694.86 168.837 697.2 171.87C697.636 172.381 698.189 172.797 698.818 173.086C699.448 173.376 700.138 173.532 700.84 173.544C702.17 173.663 703.51 173.663 704.84 173.544C706.612 173.421 708.336 172.952 709.9 172.167C711.52 171.46 712.22 170.921 712.3 169.358C712.344 166.904 711.403 164.522 709.66 162.679ZM745.16 164.335C744.125 163.071 742.735 162.097 741.144 161.52C739.553 160.942 737.822 160.783 736.14 161.06C736.041 161.041 735.939 161.041 735.84 161.06H735.72L735.14 161.172C734.86 161.172 734.82 161.358 734.9 161.47C733.255 162.511 732.109 164.106 731.706 165.919C731.303 167.731 731.674 169.619 732.74 171.181C733.16 171.723 733.713 172.163 734.353 172.464C734.994 172.765 735.703 172.918 736.42 172.912C738.153 173.014 739.866 173.314 741.52 173.805C742.293 174.043 743.119 174.094 743.92 173.953C745.72 173.749 746.44 171.051 746.64 169.656C746.859 167.774 746.333 165.882 745.16 164.335Z" fill="black"/>
<path d="M704.68 171.758C704.018 171.864 703.35 171.938 702.68 171.981C700.68 172.149 699.76 172.074 699.16 170.419C698.679 169.072 698.792 167.602 699.474 166.332C700.157 165.062 701.353 164.097 702.8 163.647L703.42 163.498C704.198 163.351 705.002 163.37 705.771 163.554C706.54 163.738 707.254 164.082 707.859 164.561C708.463 165.039 708.943 165.639 709.263 166.316C709.582 166.992 709.731 167.727 709.7 168.465C709.7 172.037 706.64 171.442 704.68 171.758ZM744 170.567C743.42 172.67 741.66 172.595 739.8 172.093C739.111 171.908 738.397 171.814 737.68 171.814C737.249 171.855 736.814 171.814 736.4 171.695C735.986 171.576 735.602 171.38 735.272 171.119C734.941 170.859 734.671 170.539 734.476 170.179C734.282 169.818 734.167 169.425 734.14 169.023C733.808 167.873 733.939 166.649 734.511 165.583C735.082 164.517 736.053 163.683 737.24 163.237C738.704 163.014 740.205 163.303 741.454 164.048C742.702 164.794 743.609 165.943 744 167.274C744.329 168.351 744.329 169.491 744 170.567Z" fill="#FF4500"/>
<path d="M723.1 134.474C722.693 133.578 722.023 132.807 721.168 132.247C720.312 131.688 719.304 131.364 718.26 131.312C711.3 130.772 704.74 134.381 700.52 137.488L699.84 137.06C699.213 136.58 698.493 136.214 697.72 135.981L696.82 135.795C696.147 135.703 695.46 135.767 694.82 135.981C693.803 136.087 692.833 136.433 692 136.986C692 136.986 691.26 137.563 691.08 137.749C690.141 138.665 689.463 139.785 689.107 141.006C688.751 142.228 688.728 143.512 689.04 144.744C689.363 145.738 689.978 146.629 690.815 147.316C691.652 148.003 692.679 148.459 693.78 148.633C694.351 148.754 694.934 148.816 695.52 148.819C696.587 148.829 697.642 148.608 698.6 148.172C699.559 147.736 700.394 147.097 701.04 146.307C701.682 145.479 702.123 144.531 702.334 143.529C702.545 142.527 702.519 141.494 702.26 140.502C702.168 140.098 702.027 139.705 701.84 139.33H701.94L702.24 139.088C705.148 136.848 708.45 135.092 712 133.898C716 132.558 719.1 133.302 720.44 135.758C720.965 136.946 721.162 138.236 721.016 139.513C720.869 140.79 720.383 142.012 719.6 143.07C719.539 143.172 719.507 143.287 719.507 143.405C719.507 143.522 719.539 143.637 719.6 143.74C719.88 144.242 720.74 144.372 721.18 144.372C721.373 144.39 721.569 144.362 721.747 144.291C721.926 144.219 722.082 144.106 722.2 143.963C723.107 142.546 723.658 140.957 723.814 139.314C723.97 137.671 723.726 136.017 723.1 134.474Z" fill="black"/>
<path d="M691.64 141.135C692.075 140.271 692.749 139.531 693.592 138.988C694.435 138.446 695.418 138.121 696.44 138.047C697.048 138.043 697.647 138.184 698.18 138.456C698.325 138.635 698.458 138.821 698.58 139.014V139.181C699.049 139.992 699.405 140.855 699.64 141.749C699.744 142.406 699.699 143.076 699.51 143.717C699.32 144.357 698.99 144.954 698.54 145.47C698.179 146.001 697.688 146.447 697.108 146.77C696.528 147.093 695.875 147.285 695.2 147.33C694.465 147.27 693.757 147.039 693.142 146.659C692.527 146.278 692.025 145.761 691.68 145.153C691.276 144.552 691.059 143.859 691.052 143.149C691.045 142.44 691.248 141.743 691.64 141.135Z" fill="white"/>
<path d="M696.52 176.614C695.2 176.484 693.66 176.335 693.48 174.865C693.22 172.893 696 171.814 697.64 172.26H697.8C697.919 172.278 698.041 172.278 698.16 172.26C699.48 172.372 701 172.577 701.06 174.009C701.14 176.372 698.28 176.781 696.52 176.614ZM745.26 177.433C744.62 178.121 742.6 176.967 742.08 176.595C741.825 176.445 741.61 176.244 741.45 176.005C741.291 175.767 741.192 175.498 741.16 175.219C741.16 174.884 741.5 173.358 742.14 173.581C742.408 173.649 742.691 173.649 742.96 173.581C743.465 173.599 743.959 173.728 744.401 173.958C744.842 174.187 745.219 174.511 745.5 174.902C745.753 175.293 745.866 175.749 745.822 176.204C745.779 176.658 745.582 177.089 745.26 177.433Z" fill="#91CFF6"/>
</svg>
