<svg width="116" height="77" viewBox="0 0 116 77" fill="none" xmlns="http://www.w3.org/2000/svg">
<g clip-path="url(#clip0)">
<path d="M22.5 1.44951e-05C43.1 1.10001 57.5 10 67 20.1C76.5 30.2 78.2 42.7 63.5 60.6C58 66.4 50.6 77 37.9 77C33.1 77 28.1 74.3 24.7 70C20 63.9 16.7 56.1 13.3 48.5C9.89997 40.9 4.29997 30.9 1.59997 24.9C-2.40003 15.9 -2.67029e-05 -1.19999 22.5 1.44951e-05Z" fill="#FF3C5A"/>
<path d="M24.1 45.2C24.1 48.8 20.7 49.7 16 50.1V41H18.8C22.8 41 24.1 42.2 24.1 45.2ZM95.5 50.5C95.5 47.2 96.7 46.2 102.2 46.2H103.2V43.1H102.5C96.1 43.1 92.3 44.4 92.3 50.3V51.8C92.3 56.5 94 60 101.7 60H103.3V56.9H102C95.7 56.9 95.6 54.3 95.6 51.8L95.5 50.5ZM70.7 59.8H73.9V38.1H70.7V59.8ZM12.7 38.1V59.8H16.1V53.3C22.5 52.5 27.6 50.9 27.6 45.2C27.6 40.1 25.1 38 18.2 38L12.7 38.1ZM47.9 45.7C47.7 44.9 47.5 44.1 47.1 43.3H44.7C44.9 44.4 45 45.6 44.9 46.7V59.7H48.1V49.5C48.1 46.6 51.8 46.4 53.9 46.3V43.3C49.1 43.5 47.6 44.7 47 45.9L47.9 45.7ZM116 56.9H115.6C109.7 56.9 108.8 55.3 108.8 51.8V46.3H116V43.3H108.8V38.7H105.6V51.9C105.6 58.4 109.2 59.9 115.3 60H116V56.9ZM80.2 50.5C80.2 47.5 81.6 45.8 84.4 45.8C86.4 45.8 87.3 46.6 87.3 48.3C87.3 50.1 86 50.6 84.2 50.6H79L79.5 53H84.1C87.7 53 90.2 51.9 90.2 48.3C90.2 44.7 87.9 43.1 84.3 43.1C79.8 43.1 76.9 45.8 76.9 50.4V51.8C76.9 56.6 78.6 60 86.3 60H88.6V56.9H86.7C80.9 56.9 80.1 55.2 80.1 51.9L80.2 50.5ZM64.6 49.3C63.6 49.9 61.5 50 59.9 50.2C57.2 50.6 54.6 51.4 54.6 54.9C54.6 58.7 57.3 59.9 60 59.9C62.6 59.9 64.5 59 65.5 57.5L64.3 56.1C63.8 56.5 62.9 57.5 60.5 57.5C58.8 57.5 57.7 56.5 57.7 54.9C57.7 53.2 58.7 52.6 60.6 52.4C62.3 52.2 64.5 52.1 65.5 51.4C65.3 51 64.6 49.1 64.6 49.3ZM60.4 43.2C58.6 43.2 57.3 43.3 55.9 43.4V46.3C57.3 46.2 58.6 46.1 60.4 46.1C63.2 46.1 64.2 46.8 64.2 50.7V56.4C64.3 57.6 64.6 58.7 65.1 59.7H67.5C67.3 58.9 67.3 56.9 67.3 56.3V50.7C67.3 44.9 65.3 43.2 60.4 43.2ZM38.9 49.3C37.9 49.9 35.8 50 34.2 50.2C31.5 50.6 28.9 51.4 28.9 54.9C28.9 58.7 31.6 59.9 34.3 59.9C36.9 59.9 38.8 59 39.8 57.5L38.6 56.1C38.1 56.5 37.2 57.5 34.8 57.5C33.1 57.5 32 56.5 32 54.9C32 53.2 33 52.6 34.9 52.4C36.6 52.2 38.8 52.1 39.8 51.4C39.6 51 38.9 49.1 38.9 49.3ZM34.7 43.2C32.9 43.2 31.6 43.3 30.2 43.4V46.3C31.6 46.2 32.9 46.1 34.7 46.1C37.5 46.1 38.5 46.8 38.5 50.7V56.4C38.6 57.6 38.9 58.7 39.4 59.7H41.8C41.6 58.9 41.6 56.9 41.6 56.3V50.7C41.6 44.9 39.5 43.2 34.7 43.2Z" fill="black"/>
</g>
<defs>
<clipPath id="clip0">
<rect width="116" height="77" fill="white"/>
</clipPath>
</defs>
</svg>
