<svg width="24" height="24" viewBox="0 0 24 24" fill="none" xmlns="http://www.w3.org/2000/svg">
<path d="M7.2 20.16H6.24L6.816 19.392C7.2 18.864 7.44 18.192 7.584 17.376C5.184 16.272 3.84 14.208 3.84 11.52C3.84 7.392 6.96 4.8 12 4.8C17.04 4.8 20.16 7.392 20.16 11.52C20.16 15.744 17.088 18.24 12 18.24H11.664C10.896 19.152 9.552 20.16 7.2 20.16ZM12 5.76C7.488 5.76 4.8 7.92 4.8 11.52C4.8 14.592 6.672 16.032 8.256 16.656L8.592 16.8L8.544 17.184C8.448 17.952 8.304 18.624 8.016 19.2C9.6 19.008 10.512 18.192 11.04 17.52L11.184 17.328H12C18.48 17.328 19.2 13.296 19.2 11.568C19.2 7.92 16.512 5.76 12 5.76Z" fill="#7C787E"/>
</svg>
