<svg width="23" height="24" viewBox="0 0 23 24" fill="none" xmlns="http://www.w3.org/2000/svg">
    <path d="M11.4392 22C16.704 22 20.9719 17.5228 20.9719 12C20.9719 6.47715 16.704 2 11.4392 2C6.17443 2 1.90649 6.47715 1.90649 12C1.90649 17.5228 6.17443 22 11.4392 22Z" stroke="#FF3C5A" stroke-width="2" stroke-linecap="round" stroke-linejoin="round"/>
    <path d="M8.66528 9C8.8894 8.33167 9.33176 7.76811 9.91402 7.40913C10.4963 7.05016 11.1809 6.91894 11.8465 7.03871C12.5122 7.15849 13.1159 7.52153 13.5509 8.06353C13.9858 8.60553 14.2239 9.29152 14.2229 10C14.2229 12 11.363 13 11.363 13" stroke="#FF3C5A" stroke-width="2" stroke-linecap="round" stroke-linejoin="round"/>
    <path d="M11.4392 17H11.4492" stroke="#FF3C5A" stroke-width="2" stroke-linecap="round" stroke-linejoin="round"/>
</svg>
