<svg width="171" height="111" viewBox="0 0 171 111" fill="none" xmlns="http://www.w3.org/2000/svg">
    <path d="M6.576 105.288C5.52 105.288 4.496 105.088 3.504 104.688C2.528 104.288 1.664 103.72 0.912 102.984L2.544 101.088C3.104 101.616 3.744 102.048 4.464 102.384C5.184 102.704 5.904 102.864 6.624 102.864C7.52 102.864 8.2 102.68 8.664 102.312C9.128 101.944 9.36 101.456 9.36 100.848C9.36 100.528 9.296 100.256 9.168 100.032C9.056 99.808 8.888 99.616 8.664 99.456C8.456 99.28 8.2 99.12 7.896 98.976C7.608 98.832 7.288 98.688 6.936 98.544L4.776 97.608C4.392 97.448 4.008 97.248 3.624 97.008C3.256 96.768 2.92 96.48 2.616 96.144C2.312 95.808 2.064 95.416 1.872 94.968C1.696 94.52 1.608 94.008 1.608 93.432C1.608 92.808 1.736 92.232 1.992 91.704C2.264 91.16 2.632 90.688 3.096 90.288C3.56 89.888 4.112 89.576 4.752 89.352C5.408 89.128 6.12 89.016 6.888 89.016C7.8 89.016 8.68 89.2 9.528 89.568C10.376 89.92 11.104 90.4 11.712 91.008L10.296 92.784C9.784 92.368 9.256 92.04 8.712 91.8C8.168 91.56 7.56 91.44 6.888 91.44C6.136 91.44 5.536 91.608 5.088 91.944C4.64 92.264 4.416 92.712 4.416 93.288C4.416 93.592 4.48 93.856 4.608 94.08C4.752 94.288 4.936 94.48 5.16 94.656C5.4 94.816 5.672 94.968 5.976 95.112C6.28 95.24 6.592 95.368 6.912 95.496L9.048 96.384C9.512 96.576 9.936 96.8 10.32 97.056C10.704 97.312 11.032 97.608 11.304 97.944C11.592 98.28 11.816 98.672 11.976 99.12C12.136 99.552 12.216 100.056 12.216 100.632C12.216 101.272 12.088 101.872 11.832 102.432C11.576 102.992 11.2 103.488 10.704 103.92C10.224 104.336 9.632 104.672 8.928 104.928C8.24 105.168 7.456 105.288 6.576 105.288ZM18.3493 105.288C17.6613 105.288 17.0773 105.184 16.5973 104.976C16.1333 104.768 15.7493 104.48 15.4453 104.112C15.1573 103.728 14.9413 103.28 14.7973 102.768C14.6693 102.24 14.6053 101.656 14.6053 101.016V95.4H12.9253V93.336L14.7493 93.216L15.0853 90H17.3893V93.216H20.3893V95.4H17.3893V101.016C17.3893 102.392 17.9413 103.08 19.0453 103.08C19.2533 103.08 19.4613 103.056 19.6693 103.008C19.8933 102.96 20.0933 102.896 20.2693 102.816L20.7493 104.856C20.4293 104.968 20.0613 105.064 19.6453 105.144C19.2453 105.24 18.8133 105.288 18.3493 105.288ZM25.2096 105.288C24.1696 105.288 23.3296 104.976 22.6896 104.352C22.0496 103.712 21.7296 102.872 21.7296 101.832C21.7296 101.208 21.8576 100.656 22.1136 100.176C22.3856 99.68 22.8016 99.256 23.3616 98.904C23.9376 98.552 24.6576 98.256 25.5216 98.016C26.4016 97.776 27.4496 97.592 28.6656 97.464C28.6496 97.16 28.6016 96.872 28.5216 96.6C28.4576 96.312 28.3376 96.064 28.1616 95.856C28.0016 95.632 27.7856 95.464 27.5136 95.352C27.2416 95.224 26.9056 95.16 26.5056 95.16C25.9296 95.16 25.3616 95.272 24.8016 95.496C24.2576 95.72 23.7216 95.992 23.1936 96.312L22.1856 94.464C22.8416 94.048 23.5776 93.688 24.3936 93.384C25.2096 93.08 26.0896 92.928 27.0336 92.928C28.5056 92.928 29.6016 93.368 30.3216 94.248C31.0576 95.112 31.4256 96.368 31.4256 98.016V105H29.1456L28.9536 103.704H28.8576C28.3296 104.152 27.7616 104.528 27.1536 104.832C26.5616 105.136 25.9136 105.288 25.2096 105.288ZM26.0976 103.128C26.5776 103.128 27.0096 103.016 27.3936 102.792C27.7936 102.568 28.2176 102.248 28.6656 101.832V99.192C27.8656 99.288 27.1936 99.416 26.6496 99.576C26.1056 99.736 25.6656 99.92 25.3296 100.128C24.9936 100.32 24.7536 100.544 24.6096 100.8C24.4656 101.056 24.3936 101.328 24.3936 101.616C24.3936 102.144 24.5536 102.528 24.8736 102.768C25.1936 103.008 25.6016 103.128 26.0976 103.128ZM34.7286 105V93.216H37.0086L37.2006 95.304H37.2966C37.7126 94.536 38.2166 93.952 38.8086 93.552C39.4006 93.136 40.0086 92.928 40.6326 92.928C41.1926 92.928 41.6406 93.008 41.9766 93.168L41.4966 95.568C41.2886 95.504 41.0966 95.456 40.9206 95.424C40.7446 95.392 40.5286 95.376 40.2726 95.376C39.8086 95.376 39.3206 95.56 38.8086 95.928C38.2966 96.28 37.8566 96.904 37.4886 97.8V105H34.7286ZM47.8337 105.288C47.1457 105.288 46.5617 105.184 46.0817 104.976C45.6177 104.768 45.2337 104.48 44.9297 104.112C44.6417 103.728 44.4257 103.28 44.2817 102.768C44.1537 102.24 44.0897 101.656 44.0897 101.016V95.4H42.4097V93.336L44.2337 93.216L44.5697 90H46.8737V93.216H49.8737V95.4H46.8737V101.016C46.8737 102.392 47.4257 103.08 48.5297 103.08C48.7377 103.08 48.9457 103.056 49.1537 103.008C49.3777 102.96 49.5777 102.896 49.7537 102.816L50.2337 104.856C49.9137 104.968 49.5457 105.064 49.1297 105.144C48.7297 105.24 48.2977 105.288 47.8337 105.288ZM55.8576 105.288C54.5936 105.288 53.6736 104.888 53.0976 104.088C52.5216 103.272 52.2336 102.112 52.2336 100.608V93.216H54.9936V100.248C54.9936 101.224 55.1376 101.912 55.4256 102.312C55.7136 102.712 56.1776 102.912 56.8176 102.912C57.3296 102.912 57.7776 102.784 58.1616 102.528C58.5616 102.272 58.9856 101.856 59.4336 101.28V93.216H62.1936V105H59.9376L59.7216 103.272H59.6496C59.1376 103.88 58.5776 104.368 57.9696 104.736C57.3776 105.104 56.6736 105.288 55.8576 105.288ZM65.6895 109.656V93.216H67.9695L68.1615 94.464H68.2575C68.7535 94.048 69.3055 93.688 69.9135 93.384C70.5215 93.08 71.1535 92.928 71.8095 92.928C72.5455 92.928 73.1935 93.072 73.7535 93.36C74.3295 93.632 74.8175 94.032 75.2175 94.56C75.6175 95.088 75.9215 95.72 76.1295 96.456C76.3375 97.192 76.4415 98.016 76.4415 98.928C76.4415 99.936 76.2975 100.84 76.0095 101.64C75.7375 102.424 75.3695 103.088 74.9055 103.632C74.4415 104.16 73.9055 104.568 73.2975 104.856C72.6895 105.144 72.0575 105.288 71.4015 105.288C70.8895 105.288 70.3775 105.176 69.8655 104.952C69.3535 104.728 68.8575 104.408 68.3775 103.992L68.4495 105.96V109.656H65.6895ZM70.8255 103.008C71.6095 103.008 72.2655 102.672 72.7935 102C73.3215 101.312 73.5855 100.296 73.5855 98.952C73.5855 97.768 73.3855 96.848 72.9855 96.192C72.5855 95.536 71.9375 95.208 71.0415 95.208C70.2095 95.208 69.3455 95.648 68.4495 96.528V102.024C68.8815 102.392 69.2975 102.648 69.6975 102.792C70.0975 102.936 70.4735 103.008 70.8255 103.008ZM88.8651 105.288C87.8091 105.288 86.7851 105.088 85.7931 104.688C84.8171 104.288 83.9531 103.72 83.2011 102.984L84.8331 101.088C85.3931 101.616 86.0331 102.048 86.7531 102.384C87.4731 102.704 88.1931 102.864 88.9131 102.864C89.8091 102.864 90.4891 102.68 90.9531 102.312C91.4171 101.944 91.6491 101.456 91.6491 100.848C91.6491 100.528 91.5851 100.256 91.4571 100.032C91.3451 99.808 91.1771 99.616 90.9531 99.456C90.7451 99.28 90.4891 99.12 90.1851 98.976C89.8971 98.832 89.5771 98.688 89.2251 98.544L87.0651 97.608C86.6811 97.448 86.2971 97.248 85.9131 97.008C85.5451 96.768 85.2091 96.48 84.9051 96.144C84.6011 95.808 84.3531 95.416 84.1611 94.968C83.9851 94.52 83.8971 94.008 83.8971 93.432C83.8971 92.808 84.0251 92.232 84.2811 91.704C84.5531 91.16 84.9211 90.688 85.3851 90.288C85.8491 89.888 86.4011 89.576 87.0411 89.352C87.6971 89.128 88.4091 89.016 89.1771 89.016C90.0891 89.016 90.9691 89.2 91.8171 89.568C92.6651 89.92 93.3931 90.4 94.0011 91.008L92.5851 92.784C92.0731 92.368 91.5451 92.04 91.0011 91.8C90.4571 91.56 89.8491 91.44 89.1771 91.44C88.4251 91.44 87.8251 91.608 87.3771 91.944C86.9291 92.264 86.7051 92.712 86.7051 93.288C86.7051 93.592 86.7691 93.856 86.8971 94.08C87.0411 94.288 87.2251 94.48 87.4491 94.656C87.6891 94.816 87.9611 94.968 88.2651 95.112C88.5691 95.24 88.8811 95.368 89.2011 95.496L91.3371 96.384C91.8011 96.576 92.2251 96.8 92.6091 97.056C92.9931 97.312 93.3211 97.608 93.5931 97.944C93.8811 98.28 94.1051 98.672 94.2651 99.12C94.4251 99.552 94.5051 100.056 94.5051 100.632C94.5051 101.272 94.3771 101.872 94.1211 102.432C93.8651 102.992 93.4891 103.488 92.9931 103.92C92.5131 104.336 91.9211 104.672 91.2171 104.928C90.5291 105.168 89.7451 105.288 88.8651 105.288ZM100.623 105.288C99.3592 105.288 98.4392 104.888 97.8632 104.088C97.2872 103.272 96.9992 102.112 96.9992 100.608V93.216H99.7592V100.248C99.7592 101.224 99.9032 101.912 100.191 102.312C100.479 102.712 100.943 102.912 101.583 102.912C102.095 102.912 102.543 102.784 102.927 102.528C103.327 102.272 103.751 101.856 104.199 101.28V93.216H106.959V105H104.703L104.487 103.272H104.415C103.903 103.88 103.343 104.368 102.735 104.736C102.143 105.104 101.439 105.288 100.623 105.288ZM110.455 105V93.216H112.735L112.927 94.824H113.023C113.519 94.296 114.055 93.848 114.631 93.48C115.223 93.112 115.887 92.928 116.623 92.928C117.487 92.928 118.175 93.112 118.687 93.48C119.215 93.848 119.615 94.368 119.887 95.04C120.447 94.432 121.031 93.928 121.639 93.528C122.247 93.128 122.927 92.928 123.679 92.928C124.927 92.928 125.847 93.336 126.439 94.152C127.031 94.952 127.327 96.104 127.327 97.608V105H124.543V97.968C124.543 96.992 124.391 96.304 124.087 95.904C123.799 95.504 123.351 95.304 122.743 95.304C122.007 95.304 121.183 95.792 120.271 96.768V105H117.511V97.968C117.511 96.992 117.359 96.304 117.055 95.904C116.767 95.504 116.311 95.304 115.687 95.304C114.951 95.304 114.127 95.792 113.215 96.768V105H110.455ZM130.682 105V93.216H132.962L133.154 94.824H133.25C133.746 94.296 134.282 93.848 134.858 93.48C135.45 93.112 136.114 92.928 136.85 92.928C137.714 92.928 138.402 93.112 138.914 93.48C139.442 93.848 139.842 94.368 140.114 95.04C140.674 94.432 141.258 93.928 141.866 93.528C142.474 93.128 143.154 92.928 143.906 92.928C145.154 92.928 146.074 93.336 146.666 94.152C147.258 94.952 147.554 96.104 147.554 97.608V105H144.77V97.968C144.77 96.992 144.618 96.304 144.314 95.904C144.026 95.504 143.578 95.304 142.97 95.304C142.234 95.304 141.41 95.792 140.498 96.768V105H137.738V97.968C137.738 96.992 137.586 96.304 137.282 95.904C136.994 95.504 136.538 95.304 135.914 95.304C135.178 95.304 134.354 95.792 133.442 96.768V105H130.682ZM155.948 105.288C155.132 105.288 154.372 105.152 153.668 104.88C152.964 104.592 152.348 104.184 151.82 103.656C151.292 103.128 150.876 102.488 150.572 101.736C150.284 100.968 150.14 100.096 150.14 99.12C150.14 98.16 150.292 97.296 150.596 96.528C150.9 95.76 151.3 95.112 151.796 94.584C152.308 94.056 152.892 93.648 153.548 93.36C154.204 93.072 154.876 92.928 155.564 92.928C156.364 92.928 157.068 93.064 157.676 93.336C158.284 93.608 158.788 93.992 159.188 94.488C159.604 94.984 159.916 95.576 160.124 96.264C160.332 96.952 160.436 97.704 160.436 98.52C160.436 98.792 160.42 99.048 160.388 99.288C160.372 99.528 160.348 99.72 160.316 99.864H152.828C152.956 100.92 153.324 101.736 153.932 102.312C154.556 102.872 155.348 103.152 156.308 103.152C156.82 103.152 157.292 103.08 157.724 102.936C158.172 102.776 158.612 102.56 159.044 102.288L159.98 104.016C159.42 104.384 158.796 104.688 158.108 104.928C157.42 105.168 156.7 105.288 155.948 105.288ZM152.804 97.992H158.036C158.036 97.08 157.836 96.368 157.436 95.856C157.052 95.328 156.452 95.064 155.636 95.064C154.932 95.064 154.316 95.312 153.788 95.808C153.26 96.304 152.932 97.032 152.804 97.992ZM163.072 105V93.216H165.352L165.544 95.304H165.64C166.056 94.536 166.56 93.952 167.152 93.552C167.744 93.136 168.352 92.928 168.976 92.928C169.536 92.928 169.984 93.008 170.32 93.168L169.84 95.568C169.632 95.504 169.44 95.456 169.264 95.424C169.088 95.392 168.872 95.376 168.616 95.376C168.152 95.376 167.664 95.56 167.152 95.928C166.64 96.28 166.2 96.904 165.832 97.8V105H163.072Z" fill="black"/>
    <g clip-path="url(#clip0)">
        <path d="M49.5 1.44951e-05C70.1 1.10001 84.5 10 94 20.1C103.5 30.2 105.2 42.7 90.5 60.6C85 66.4 77.6 77 64.9 77C60.1 77 55.1 74.3 51.7 70C47 63.9 43.7 56.1 40.3 48.5C36.9 40.9 31.3 30.9 28.6 24.9C24.6 15.9 27 -1.19999 49.5 1.44951e-05Z" fill="#FF3C5A"/>
        <path d="M51.1 45.2C51.1 48.8 47.7 49.7 43 50.1V41H45.8C49.8 41 51.1 42.2 51.1 45.2ZM122.5 50.5C122.5 47.2 123.7 46.2 129.2 46.2H130.2V43.1H129.5C123.1 43.1 119.3 44.4 119.3 50.3V51.8C119.3 56.5 121 60 128.7 60H130.3V56.9H129C122.7 56.9 122.6 54.3 122.6 51.8L122.5 50.5ZM97.7 59.8H100.9V38.1H97.7V59.8ZM39.7 38.1V59.8H43.1V53.3C49.5 52.5 54.6 50.9 54.6 45.2C54.6 40.1 52.1 38 45.2 38L39.7 38.1ZM74.9 45.7C74.7 44.9 74.5 44.1 74.1 43.3H71.7C71.9 44.4 72 45.6 71.9 46.7V59.7H75.1V49.5C75.1 46.6 78.8 46.4 80.9 46.3V43.3C76.1 43.5 74.6 44.7 74 45.9L74.9 45.7ZM143 56.9H142.6C136.7 56.9 135.8 55.3 135.8 51.8V46.3H143V43.3H135.8V38.7H132.6V51.9C132.6 58.4 136.2 59.9 142.3 60H143V56.9ZM107.2 50.5C107.2 47.5 108.6 45.8 111.4 45.8C113.4 45.8 114.3 46.6 114.3 48.3C114.3 50.1 113 50.6 111.2 50.6H106L106.5 53H111.1C114.7 53 117.2 51.9 117.2 48.3C117.2 44.7 114.9 43.1 111.3 43.1C106.8 43.1 103.9 45.8 103.9 50.4V51.8C103.9 56.6 105.6 60 113.3 60H115.6V56.9H113.7C107.9 56.9 107.1 55.2 107.1 51.9L107.2 50.5ZM91.6 49.3C90.6 49.9 88.5 50 86.9 50.2C84.2 50.6 81.6 51.4 81.6 54.9C81.6 58.7 84.3 59.9 87 59.9C89.6 59.9 91.5 59 92.5 57.5L91.3 56.1C90.8 56.5 89.9 57.5 87.5 57.5C85.8 57.5 84.7 56.5 84.7 54.9C84.7 53.2 85.7 52.6 87.6 52.4C89.3 52.2 91.5 52.1 92.5 51.4C92.3 51 91.6 49.1 91.6 49.3ZM87.4 43.2C85.6 43.2 84.3 43.3 82.9 43.4V46.3C84.3 46.2 85.6 46.1 87.4 46.1C90.2 46.1 91.2 46.8 91.2 50.7V56.4C91.3 57.6 91.6 58.7 92.1 59.7H94.5C94.3 58.9 94.3 56.9 94.3 56.3V50.7C94.3 44.9 92.3 43.2 87.4 43.2ZM65.9 49.3C64.9 49.9 62.8 50 61.2 50.2C58.5 50.6 55.9 51.4 55.9 54.9C55.9 58.7 58.6 59.9 61.3 59.9C63.9 59.9 65.8 59 66.8 57.5L65.6 56.1C65.1 56.5 64.2 57.5 61.8 57.5C60.1 57.5 59 56.5 59 54.9C59 53.2 60 52.6 61.9 52.4C63.6 52.2 65.8 52.1 66.8 51.4C66.6 51 65.9 49.1 65.9 49.3ZM61.7 43.2C59.9 43.2 58.6 43.3 57.2 43.4V46.3C58.6 46.2 59.9 46.1 61.7 46.1C64.5 46.1 65.5 46.8 65.5 50.7V56.4C65.6 57.6 65.9 58.7 66.4 59.7H68.8C68.6 58.9 68.6 56.9 68.6 56.3V50.7C68.6 44.9 66.5 43.2 61.7 43.2Z" fill="black"/>
    </g>
    <defs>
        <clipPath id="clip0">
            <rect width="116" height="77" fill="white" transform="translate(27)"/>
        </clipPath>
    </defs>
</svg>
