<svg width="18" height="17" viewBox="0 0 18 17" fill="none" xmlns="http://www.w3.org/2000/svg">
    <path d="M4.2 16.16H3.24L3.816 15.392C4.2 14.864 4.44 14.192 4.584 13.376C2.184 12.272 0.839996 10.208 0.839996 7.52C0.839996 3.392 3.96 0.800003 9 0.800003C14.04 0.800003 17.16 3.392 17.16 7.52C17.16 11.744 14.088 14.24 9 14.24H8.664C7.896 15.152 6.552 16.16 4.2 16.16ZM9 1.76C4.488 1.76 1.8 3.92 1.8 7.52C1.8 10.592 3.672 12.032 5.256 12.656L5.592 12.8L5.544 13.184C5.448 13.952 5.304 14.624 5.016 15.2C6.6 15.008 7.512 14.192 8.04 13.52L8.184 13.328H9C15.48 13.328 16.2 9.296 16.2 7.568C16.2 3.92 13.512 1.76 9 1.76Z" fill="#7C787E"/>
</svg>
