<svg width="23" height="24" viewBox="0 0 23 24" fill="none" xmlns="http://www.w3.org/2000/svg">
<path d="M11.4393 22C16.704 22 20.972 17.5228 20.972 12C20.972 6.47715 16.704 2 11.4393 2C6.17449 2 1.90656 6.47715 1.90656 12C1.90656 17.5228 6.17449 22 11.4393 22Z" stroke="#B9B9B9" stroke-width="2" stroke-linecap="round" stroke-linejoin="round"/>
<path d="M8.66522 9C8.88934 8.33167 9.3317 7.76811 9.91396 7.40913C10.4962 7.05016 11.1808 6.91894 11.8465 7.03871C12.5121 7.15849 13.1159 7.52153 13.5508 8.06353C13.9857 8.60553 14.2238 9.29152 14.2228 10C14.2228 12 11.363 13 11.363 13" stroke="#B9B9B9" stroke-width="2" stroke-linecap="round" stroke-linejoin="round"/>
<path d="M11.4393 17H11.4493" stroke="#B9B9B9" stroke-width="2" stroke-linecap="round" stroke-linejoin="round"/>
</svg>
