<svg width="22" height="19" viewBox="0 0 22 19" fill="none" xmlns="http://www.w3.org/2000/svg">
<path d="M0.439209 0H6.43921C7.50007 0 8.51749 0.421427 9.26764 1.17157C10.0178 1.92172 10.4392 2.93913 10.4392 4V18C10.4392 17.2044 10.1231 16.4413 9.56053 15.8787C8.99792 15.3161 8.23486 15 7.43921 15H0.439209V0Z" stroke="#B9B9B9" stroke-width="2" stroke-linecap="round" stroke-linejoin="round"/>
<path d="M20.4392 0H14.4392C13.3783 0 12.3609 0.421427 11.6108 1.17157C10.8606 1.92172 10.4392 2.93913 10.4392 4V18C10.4392 17.2044 10.7553 16.4413 11.3179 15.8787C11.8805 15.3161 12.6436 15 13.4392 15H20.4392V0Z" stroke="#B9B9B9" stroke-width="2" stroke-linecap="round" stroke-linejoin="round"/>
</svg>
